<svg xmlns="http://www.w3.org/2000/svg" xmlns:xlink="http://www.w3.org/1999/xlink" viewBox="0 0 145.73 145.73"><defs><style>.cls-1{fill:url(#linear-gradient);}.cls-2{fill:#fff;}</style><linearGradient id="linear-gradient" x1="-2.7" y1="72.86" x2="140.09" y2="72.86" gradientUnits="userSpaceOnUse"><stop offset="0" stop-color="#e7313e"/><stop offset="1" stop-color="#a7223f"/></linearGradient></defs><title>Asset 1</title><g id="Layer_2" data-name="Layer 2"><g id="Layer_1-2" data-name="Layer 1"><circle class="cls-1" cx="72.86" cy="72.86" r="72.86"/><path class="cls-2" d="M95.71,75.68H67.47l-3.56-9.57H88A17.35,17.35,0,0,0,95.71,75.68Z"/><path class="cls-2" d="M94.64,45.41A15.55,15.55,0,0,0,89.3,51a15.85,15.85,0,0,0-1.63,4H59.86l-3.55-9.57Z"/><path class="cls-2" d="M49.72,45.41H38L19.1,97H32.39l3-9.65H52.42l3,9.65H68.8ZM38.35,77.78l5.53-17.91,5.56,17.91Z"/><path class="cls-2" d="M111.33,67.52c-6.86-3.54-7.6-5.65-7.69-7,0-.18,0-.34,0-.5a6.43,6.43,0,0,1,.1-1.1,4.86,4.86,0,0,1,1.35-2.64A5.29,5.29,0,0,1,109,54.8h14.45V45.41H109.24a16.45,16.45,0,0,0-7.71,1.82A13.1,13.1,0,0,0,95.08,55a10.06,10.06,0,0,0-.3,1.11,13.22,13.22,0,0,0-.52,3.82,14.38,14.38,0,0,0,.52,4,15.15,15.15,0,0,0,.68,2.23A13.9,13.9,0,0,0,98,70.26a14.12,14.12,0,0,0,3.89,3.18c9.47,5.16,11.93,5.76,11.93,9.57,0,3.07-1.62,4.42-5.48,4.42H71.86l3.61,9.65H110c11.91,0,13.69-8.43,13.69-13.85C123.7,72.87,115.49,69.66,111.33,67.52Z"/></g></g></svg>